<svg xmlns="http://www.w3.org/2000/svg" xmlns:xlink="http://www.w3.org/1999/xlink" fill="none" version="1.1" width="164" height="102" viewBox="0 0 164 102"><defs><radialGradient cx="0" cy="0" r="1" gradientUnits="userSpaceOnUse" id="master_svg0_188_4168" gradientTransform="translate(82 51) rotate(90) scale(44 75)"><stop offset="0%" stop-color="#F82C30" stop-opacity="0.20000000298023224"/><stop offset="100%" stop-color="#F82C30" stop-opacity="0.4000000059604645"/></radialGradient></defs><g style="mix-blend-mode:passthrough"><g style="mix-blend-mode:passthrough"><rect x="2" y="2" width="160" height="98" rx="0" fill-opacity="0" stroke-opacity="0.10000000149011612" stroke="#F82C30" fill="none" stroke-width="4"/></g><g style="mix-blend-mode:passthrough"><rect x="4.5" y="4.5" width="155" height="93" rx="0" fill-opacity="0" stroke-opacity="1" stroke="#F82C30" fill="none" stroke-width="1"/></g><g style="mix-blend-mode:passthrough"><path d="M26.2857,4L26.2857,6L6,6L6,17.4286L4,17.4286L4,4L26.2857,4ZM137.714,4L160,4L160,17.4286L158,17.4286L158,6L137.714,6L137.714,4ZM160,84.5714L160,98L137.714,98L137.714,96L158,96L158,84.5714L160,84.5714ZM26.2857,98L4,98L4,84.5714L6,84.5714L6,96L26.2857,96L26.2857,98Z" fill-rule="evenodd" fill="#F82C30" fill-opacity="1"/></g><g style="mix-blend-mode:passthrough"><rect x="7" y="7" width="150" height="88" rx="0" fill="url(#master_svg0_188_4168)" fill-opacity="1"/><rect x="7.5" y="7.5" width="149" height="87" rx="0" fill-opacity="0" stroke-opacity="0.20000000298023224" stroke="#F82C30" fill="none" stroke-width="1"/></g></g></svg>