<svg xmlns="http://www.w3.org/2000/svg" xmlns:xlink="http://www.w3.org/1999/xlink" fill="none" version="1.1" width="24" height="24" viewBox="0 0 24 24"><defs><clipPath id="master_svg0_190_5326"><rect x="5" y="6" width="14" height="12.684210777282715" rx="0"/></clipPath></defs><g style="mix-blend-mode:passthrough"><g style="mix-blend-mode:passthrough"><ellipse cx="12" cy="12" rx="12" ry="12" fill="#000000" fill-opacity="0"/></g><g clip-path="url(#master_svg0_190_5326)"><g><path d="M18.9737,6.236842C18.8947,6.105263,18.736800000000002,6,18.5789,6L5.4210519999999995,6C5.263158,6,5.105263,6.105263,5.0263158,6.236842C4.9736842,6.394737,5,6.578947,5.105263,6.710526L10.26316,12.605260000000001L10.26316,16.9737C10.26316,17.1316,10.36842,17.2895,10.5,17.342100000000002L13.13158,18.6053C13.18421,18.6316,13.26316,18.657899999999998,13.31579,18.657899999999998C13.39474,18.657899999999998,13.47368,18.6316,13.52632,18.6053C13.6579,18.5263,13.73684,18.3947,13.73684,18.236800000000002L13.73684,12.605260000000001L18.8947,6.710526C19,6.578947,19.0263,6.394737,18.9737,6.236842ZM13,12.18421C12.921050000000001,12.26316,12.894739999999999,12.36842,12.894739999999999,12.47368L12.894739999999999,17.5789L11.105260000000001,16.7105L11.105260000000001,12.44737C11.105260000000001,12.34211,11.078949999999999,12.23684,11,12.1579L6.34211,6.842105L17.657899999999998,6.842105L13,12.18421Z" fill="#FFFFFF" fill-opacity="0.699999988079071"/></g></g></g></svg>