<svg xmlns="http://www.w3.org/2000/svg" xmlns:xlink="http://www.w3.org/1999/xlink" fill="none" version="1.1" width="24" height="24" viewBox="0 0 24 24"><defs><clipPath id="master_svg0_190_4722"><rect x="5" y="5" width="14" height="14.000000953674316" rx="0"/></clipPath></defs><g style="mix-blend-mode:passthrough"><g style="mix-blend-mode:passthrough"><ellipse cx="12" cy="12" rx="12" ry="12" fill="#FFFFFF" fill-opacity="0.07999999821186066"/></g><g clip-path="url(#master_svg0_190_4722)"><g><path d="M18.8684,18.2895L16.6842,16.1053C17.736800000000002,14.92105,18.3684,13.36842,18.3684,11.68421C18.3684,8,15.3684,5,11.68421,5C8,5,5,8,5,11.68421C5,15.3684,8,18.3684,11.68421,18.3684C13.36842,18.3684,14.92105,17.736800000000002,16.1053,16.6842L18.2895,18.8684C18.3684,18.947400000000002,18.4737,19,18.5789,19C18.6842,19,18.7895,18.947400000000002,18.8684,18.8684C19.052599999999998,18.7105,19.052599999999998,18.447400000000002,18.8684,18.2895ZM5.842105,11.68421C5.842105,8.47368,8.47368,5.842105,11.68421,5.842105C14.89474,5.842105,17.5263,8.47368,17.5263,11.68421C17.5263,14.89474,14.89474,17.5263,11.68421,17.5263C8.47368,17.5263,5.842105,14.92105,5.842105,11.68421Z" fill="#FFFFFF" fill-opacity="0.699999988079071"/></g></g></g></svg>