<svg xmlns="http://www.w3.org/2000/svg" xmlns:xlink="http://www.w3.org/1999/xlink" fill="none" version="1.1" width="14" height="13.125" viewBox="0 0 14 13.125"><g><g><path d="M13.72,7.60471L11.97,7.60471L11.97,3.68783L12.9033,2.7716C13.02,2.65707,13.02,2.49673,12.9033,2.3822C12.7867,2.26767,12.6233,2.26767,12.5067,2.3822L11.5733,3.29843L9.94,3.29843L9.94,3.02356C9.96334,1.35144,8.63333,0,7,0C5.36667,0,4.03667,1.35144,4.03667,3.02356L4.03667,3.29843L2.40333,3.29843L1.47,2.3822C1.35333,2.26767,1.19,2.26767,1.07333,2.3822C0.956666,2.49673,0.956666,2.65707,1.07333,2.7716L2.00667,3.68783L2.00667,7.60471L0.28,7.60471C0.14,7.60471,0,7.71924,0,7.87958C0,8.03992,0.116667,8.15445,0.28,8.15445L2.03,8.15445L2.03,8.22317C2.03,8.45223,2.07667,9.59751,2.70667,10.7428L1.09667,12.3233C0.98,12.4378,0.98,12.5982,1.09667,12.7127C1.14333,12.7585,1.21333,12.7814,1.28333,12.7814C1.35333,12.7814,1.42333,12.7585,1.47,12.7127L2.98667,11.2238C3.61667,12.1171,4.80667,13.125,7,13.125C9.00667,13.125,10.2667,12.2775,11.0133,11.2467L12.5067,12.7127C12.5533,12.7585,12.6233,12.7814,12.6933,12.7814C12.7633,12.7814,12.8333,12.7585,12.88,12.7127C12.9967,12.5982,12.9967,12.4378,12.88,12.3233L11.2933,10.7657C11.7833,9.87238,11.97,8.93325,11.97,8.22317L11.97,8.15445L13.72,8.15445C13.86,8.15445,14,8.03992,14,7.87958C14,7.71924,13.8833,7.60471,13.72,7.60471ZM6.06667,2.31348C5.22667,2.67997,5.06333,1.83246,5.06333,1.6034C5.11,1.53469,5.88,1.71793,6.23,1.87827C6.32333,1.92408,6.53333,2.06152,6.06667,2.31348ZM7.28,9.46008C7.28,9.59751,7.16333,9.73495,7,9.73495C6.86,9.73495,6.72,9.62042,6.72,9.46008L6.72,6.25327C6.72,6.11584,6.83667,5.9784,7,5.9784C7.14,5.9784,7.28,6.09293,7.28,6.25327L7.28,9.46008ZM7.93333,2.33639C7.56,2.10733,7.63,1.9928,7.74667,1.90118C7.88667,1.78665,8.86667,1.55759,8.91333,1.62631C8.93667,1.71793,8.82,2.70288,7.93333,2.33639Z" fill="#F82C30" fill-opacity="1"/></g></g></svg>