<svg xmlns="http://www.w3.org/2000/svg" viewBox="0 0 256 256"><defs><style>.cls-1{fill:none;}.cls-2{fill:#8322a3;}.cls-3{fill:#fff;}</style></defs><g id="图层_2" data-name="图层 2"><g id="BG"><rect class="cls-1" width="256" height="256"/></g><g id="图层_2-2" data-name="图层 2"><circle class="cls-2" cx="126" cy="119" r="104"/><path class="cls-3" d="M50.45,147.36V150c0,4.37,2.62,7,7,7q5.24,0,7.86-5.23l3.49-9.6H97.57l2.62,9.6Q102.8,157,108,157c4.36,0,7-1.74,7-6.1a9.53,9.53,0,0,0-.87-4.37L94.08,89.77c-2.62-6.11-6.11-8.72-11.34-8.72S74,84.54,71.39,89.77L50.45,147.36ZM86.74,97.62l9.59,30.54H77.14Zm45.37-16.55q-7.86,0-7.86,7.86V149.1c0,5.24,2.62,7,7.86,7s7.85-2.62,7.85-7V131.65H151.3c16.58-.87,25.31-9.6,26.18-25.3-.87-15.71-9.6-23.56-26.18-25.3H132.11Zm28.79,26.15c-.87,7-4.36,10.47-10.47,11.34H140V96.75h10.47Q160.9,96.75,160.9,107.22ZM193.69,157c5.24,0,7.86-2.61,7.86-7V90.64q0-7.85-7.86-7.85t-7.85,7.85V150C186.71,154.34,189.33,157,193.69,157Z"/></g></g></svg>