<svg xmlns="http://www.w3.org/2000/svg" viewBox="0 0 256 256"><defs><style>.cls-1{fill:none;}.cls-2{fill:#049b0f;}.cls-3{fill:#fff;}.cls-4{fill:#e5e7e6;}</style></defs><g id="图层_2" data-name="图层 2"><g id="BG"><rect class="cls-1" width="256" height="256"/></g><g id="图层_2-2" data-name="图层 2"><polygon class="cls-2" points="145.55 29 35.29 50.97 35.29 209.03 145.55 231 145.55 29"/><polygon class="cls-3" points="89.05 136.52 77.59 161.37 64.38 160.45 81.1 130.07 66.14 96.96 79.34 96.03 88.16 120.87 89.91 120.87 99.6 94.19 113.69 93.28 96.08 128.23 113.7 164.12 99.61 163.2 89.05 136.52"/><path class="cls-4" d="M145.55,55h68.59V215.45H145.55Z"/><path class="cls-2" d="M145.55,90.67H159v15H145.55Zm0,31.62H159v15H145.55Zm0,35.79H159v15H145.55Z"/><path class="cls-2" d="M173.55,90.67H199v15H173.55Zm0,31.62H199v15H173.55Zm0,35.79H199v15H173.55Z"/></g></g></svg>