<svg xmlns="http://www.w3.org/2000/svg" viewBox="0 0 256 256"><defs><style>.cls-1{fill:none;}.cls-2{fill:#0c98db;}</style></defs><g id="图层_2" data-name="图层 2"><g id="BG"><rect class="cls-1" width="256" height="256"/></g><g id="图层_2-2" data-name="图层 2"><path class="cls-2" d="M103,124.36H93.78c.24-1.82,1.16-5,4.79-5C100.94,119.4,102.77,120.74,103,124.36Zm48-4.88c-.17,0-5-.62-5,7s4.79,7,5,7c4.56,0,4.95-4.76,4.95-7C156,118.86,151.18,119.48,151,119.48Zm-85.41,8.34a3,3,0,0,0-1.15,2.56,2.64,2.64,0,0,0,1.15,2.48c1.65,1.3,5.29.74,7.35.33v-5.94C71.09,126.87,67.09,126.56,65.61,127.82Zm174.76-8.25c0,30.75-28.09,54.21-58.07,47.9-6.45,11.59-24.84,24.85-46.42,14.62-14.45,33.73-62.47,32.37-75.08-1.81-42,8.38-62.79-48.59-26.43-70-12.2-27.89,8-61,40.14-61a43.58,43.58,0,0,1,34.61,17.1,39.45,39.45,0,0,1,63.19,8.34C204.9,60.5,240.37,84.69,240.37,119.57ZM57.93,130.73c0-4.13-4.11-5.32-6.28-6-1.85-.74-4.71-1.23-4.71-3.14,0-3.32,6-2.34,8.84-.74a.38.38,0,0,0,.58-.17c.08-.24.83-2.31.91-2.56a.4.4,0,0,0-.25-.49c-4.33-2.68-14.29-3-14.29,4.46,0,4.37,4,5.42,6.28,6,1.66.55,4.62,1,4.62,3,0,1.41-1.24,2.48-3.22,2.48a11.1,11.1,0,0,1-6.67-2.23c-.16-.08-.5-.25-.58.25l-.84,2.62c-.17.33.08.42.08.5a14.09,14.09,0,0,0,8,2.31c4.63,0,7.52-2.48,7.52-6.36Zm11.23-14.95a14.78,14.78,0,0,0-7.51,1.82.35.35,0,0,0-.09.49h0l.91,2.48a.35.35,0,0,0,.41.25,13.85,13.85,0,0,1,5.94-1.41,5.18,5.18,0,0,1,3.23.83c1.26,1,1.07,2.91,1.07,3.72-1.68-.11-6.71-1.21-10.32,1.32a5.93,5.93,0,0,0-2.58,5.1,5.72,5.72,0,0,0,2.31,5c4.3,2.87,12.74.71,13.38.5s1.24-.23,1.24-.66v-11.9c0-1.62.11-7.6-8-7.6Zm16.35-7.37a.39.39,0,0,0-.36-.41h-3.5a.38.38,0,0,0-.41.37v27.78a.39.39,0,0,0,.36.42h3.52a.39.39,0,0,0,.41-.37v0Zm19.58,10.16a7.59,7.59,0,0,0-6.2-2.64c-1.23,0-5,.08-7.27,3.14-2.23,2.68-2.31,6.36-2.31,7.51s0,5,2.48,7.44c.93,1,3.18,2.89,8,2.89,3.8,0,5.78-.83,6.52-1.32.17-.09.25-.25.09-.66l-.83-2.4a.44.44,0,0,0-.49-.25,12.63,12.63,0,0,1-5.37,1c-6.12,0-5.92-5.17-6-5.86h13a.42.42,0,0,0,.41-.33c-.1,0,.73-5.16-2.14-8.51ZM118,137.07c4.63,0,7.52-2.48,7.52-6.36,0-4.13-4.11-5.32-6.28-6-1.45-.59-4.71-1.19-4.71-3.14,0-1.32,1.16-2.23,3-2.23a13.45,13.45,0,0,1,5.86,1.48s.41.25.58-.16c.08-.25.82-2.31.91-2.56a.41.41,0,0,0-.25-.5,13.41,13.41,0,0,0-7.1-1.73c-4.22,0-7.19,2.56-7.19,6.19,0,4.38,4,5.42,6.28,6s4.62,1.15,4.62,3.06c0,1.4-1.24,2.47-3.22,2.47a11.06,11.06,0,0,1-6.67-2.23.37.37,0,0,0-.5,0,.34.34,0,0,0-.08.21l-.83,2.64c-.16.33.08.42.08.5a14.13,14.13,0,0,0,8,2.31ZM141,116.76c0-.25-.08-.42-.41-.42h-4.13s.33-3.14,1.57-4.38c1.46-1.45,4.13-.57,4.21-.57.41.16.5,0,.58-.17l1-2.73c.25-.33,0-.41-.08-.49-1.79-.7-6.09-1-8.59,1.49-1.92,1.92-2.46,4.89-2.81,6.85h-3a.45.45,0,0,0-.41.42l-.5,2.72c0,.25.08.41.41.41h2.89c-3,16.82-3.07,17.63-3.63,19.5a4,4,0,0,1-2.07,2.72,5.08,5.08,0,0,1-3.38-.08s-.33-.17-.5.25c-.08.25-.91,2.39-1,2.64s0,.5.16.5a10.21,10.21,0,0,0,6.28,0,7.11,7.11,0,0,0,4-4.55c1-2.7,1-3.43,4.13-21h4.29a.47.47,0,0,0,.42-.42Zm18.75,5.61a9.32,9.32,0,0,0-17.67,0,15.11,15.11,0,0,0,0,8.26,9.31,9.31,0,0,0,17.67,0A14.9,14.9,0,0,0,159.77,122.37Zm15.94-5.86c-1.75-.58-5.83-.67-7.76,1.9v-1.57a.39.39,0,0,0-.37-.41h-3.35a.39.39,0,0,0-.41.36v19.46a.4.4,0,0,0,.37.42h3.43a.39.39,0,0,0,.41-.37v-9.8c0-1,0-4,1.57-5.28,1.72-1.72,4.21-1.18,4.71-1.08a.53.53,0,0,0,.49-.33,25.07,25.07,0,0,0,1.08-2.81.4.4,0,0,0-.17-.49Zm16.44,19-.74-2.56c-.17-.42-.5-.25-.5-.25a11.37,11.37,0,0,1-4,.66c-1.63,0-6-.39-6-6.94,0-2.18.65-6.94,5.78-6.94a12.65,12.65,0,0,1,4.05.58s.33.17.41-.25c.33-.9.58-1.56.91-2.64.08-.33-.17-.41-.25-.41a14.14,14.14,0,0,0-9.75,0c-.56.26-5.7,2.28-5.7,9.66,0,1-.2,10.58,10.17,10.58a15.65,15.65,0,0,0,5.45-1,.45.45,0,0,0,.16-.5Zm18.92-13.88a7.71,7.71,0,0,0-7.85-5.7c-5.62,0-8.26,3.55-9,6.53a13.14,13.14,0,0,0-.58,4.13c0,9.08,6.61,10.32,10.49,10.32s5.78-.82,6.52-1.32c.17-.08.25-.25.09-.66l-.83-2.4a.44.44,0,0,0-.5-.24,12.63,12.63,0,0,1-5.37,1c-6.11,0-5.91-5.18-5.94-5.87h13.05a.44.44,0,0,0,.41-.33,17.67,17.67,0,0,0-.49-5.45Zm-8.18-2.23c-3.63,0-4.57,3.16-4.79,5h9.26c-.31-4.19-2.68-5-4.47-5Z"/></g></g></svg>