<svg xmlns="http://www.w3.org/2000/svg" viewBox="0 0 256 256"><defs><style>.cls-1{fill:none;}.cls-2{fill:#1675db;}</style></defs><g id="图层_2" data-name="图层 2"><g id="BG"><rect class="cls-1" width="256" height="256"/></g><g id="图层_2-2" data-name="图层 2"><path class="cls-2" d="M148.37,106.83h-7.46v21.74h7.88c8.81,0,13-4.13,13-11.51S157,106.83,148.37,106.83Z"/><path class="cls-2" d="M96.51,106h-.4c-1.84,7.88-3.85,16.66-5.77,24.15l-1.61,6.37H104.1l-1.62-6.37C100.44,122.7,98.53,113.72,96.51,106Z"/><path class="cls-2" d="M15.18,70.8V185.2H130.31L240.82,70.8Zm134.61,72.12H141v24.87h-29.1l-4.35-17.41H85.3l-4.36,17.41H62.44l1-3.33a33.32,33.32,0,0,1-18.1,4.75,42,42,0,0,1-28.11-10.82L27.49,146a30.39,30.39,0,0,0,18.31,7.68c6.66,0,9.8-2.48,9.8-6.56S51.54,141.31,45,138.6l-9.6-4.06c-7.81-3.13-15.27-9.7-15.27-20.62,0-12.63,11.31-22.75,27.36-22.75A34.78,34.78,0,0,1,72,101.11l-9,11.32a24.45,24.45,0,0,0-15.47-5.79c-5.58,0-9,2.23-9,6.26s4.75,5.77,11.42,8.41l9.4,3.73a22.59,22.59,0,0,1,13.06,11.22L85.94,92.58h21.64L123,142.08V92.58h26.36c16.59,0,30.25,5.87,30.25,24.48C179.51,134.94,165.66,142.92,149.79,142.92Z"/></g></g></svg>