<svg xmlns="http://www.w3.org/2000/svg" viewBox="0 0 256 256"><defs><style>.cls-1{fill:none;}.cls-2{fill:#e5e7e6;}.cls-3{fill:#00b222;}.cls-4{fill:#fff;}</style></defs><g id="图层_2" data-name="图层 2"><g id="BG"><rect class="cls-1" width="256" height="256"/></g><g id="图层_2-2" data-name="图层 2"><path class="cls-2" d="M70.68,40.73a1,1,0,0,0-1.05,1.05V214.23a1.06,1.06,0,0,0,1.05,1.05H215.21V88.37L167.59,40.75H70.68Z"/><path class="cls-3" d="M42.59,107.5H189.18c4.7,0,8.52,4.15,8.52,9.29V180c0,5.14-3.82,9.3-8.52,9.3H42.59c-4.7,0-8.51-4.16-8.51-9.3V116.79C34.06,111.65,37.87,107.5,42.59,107.5Z"/><path class="cls-4" d="M83.35,175.11c1,.31,2.16,0,3.61-.93a4.7,4.7,0,0,0,2.29-2.74,3.09,3.09,0,0,0-.51-2.52L72.23,145.68,86,126.38a4.43,4.43,0,0,0,.86-3.15,5.2,5.2,0,0,0-6-3.48,6.79,6.79,0,0,0-3.17,2.66l-11,15.5L55,121.41a3.91,3.91,0,0,0-2.75-1.89,5.52,5.52,0,0,0-3.44,1.28A4.86,4.86,0,0,0,47,123.55a3.66,3.66,0,0,0,.37,3.06l13.72,19.13L45.34,167.89a4.16,4.16,0,0,0-.88,3.52,4.41,4.41,0,0,0,2,2.67c2.54,1.66,4.6,1.32,6.21-1l14-19.61L80.77,173a5.32,5.32,0,0,0,2.58,2.12Zm60.52-1.05c.59.79,1.72,1.17,3.38,1.13a6.45,6.45,0,0,0,2.79-.5,3.38,3.38,0,0,0,1.46-1.32,3.91,3.91,0,0,0,.51-1.89,13.42,13.42,0,0,0-.13-2.25l-6.65-43.71a6.93,6.93,0,0,0-2.28-4.39,6.28,6.28,0,0,0-4.07-1.51,7,7,0,0,0-4.07,1.2q-1.74,1.2-2.75,4.84l-8.6,32.54-8.83-32.39c-.72-2.47-1.66-4.13-2.79-5a7,7,0,0,0-4.18-1.24,6,6,0,0,0-4.15,1.47,6.63,6.63,0,0,0-2.06,4.18l-6.67,43.92c-.35,2.16-.23,3.71.38,4.62a3.77,3.77,0,0,0,3.34,1.36c2,0,3.31-.46,4.07-1.36a8.31,8.31,0,0,0,1.51-4.16l3.65-27.44c.21-1.23.5-1.86.88-1.86s.75.63,1.13,1.86q2.17,7.53,4.38,14.84t4.45,14.83a8.54,8.54,0,0,0,.5,1.42,3.15,3.15,0,0,0,.82,1,3.65,3.65,0,0,0,1.39.63,10.67,10.67,0,0,0,2.16.19,4.89,4.89,0,0,0,3.37-.88,5.07,5.07,0,0,0,1.28-2.37l8.69-29.75c.36-1.2.75-1.78,1.15-1.78s.72.58.93,1.78l3.71,28a9.27,9.27,0,0,0,1.3,4Zm40.88.35a4.42,4.42,0,0,0,2.71-1,4.12,4.12,0,0,0,1.32-3.49,4.3,4.3,0,0,0-1.24-3.44,4.24,4.24,0,0,0-2.79-1H169.57V123.59a3.49,3.49,0,0,0-1.39-2.92,5.94,5.94,0,0,0-3.65-1,6.06,6.06,0,0,0-3.56,1,3.34,3.34,0,0,0-1.47,2.92v45.24a5.59,5.59,0,0,0,1.47,3.95,5.13,5.13,0,0,0,4,1.63Z"/></g></g></svg>