<svg xmlns="http://www.w3.org/2000/svg" xmlns:xlink="http://www.w3.org/1999/xlink" fill="none" version="1.1" width="24" height="24" viewBox="0 0 24 24"><defs><clipPath id="master_svg0_190_4730"><rect x="5" y="5" width="14" height="14" rx="0"/></clipPath></defs><g style="mix-blend-mode:passthrough"><g style="mix-blend-mode:passthrough"><ellipse cx="12" cy="12" rx="12" ry="12" fill="#FFFFFF" fill-opacity="0.07999999821186066"/></g><g clip-path="url(#master_svg0_190_4730)"><g><path d="M18.5625,11.5625L12.4375,11.5625L12.4375,5.4375C12.4375,5.191406,12.246089999999999,5,12,5C11.753910000000001,5,11.5625,5.191406,11.5625,5.4375L11.5625,11.5625L5.4375,11.5625C5.191406,11.5625,5,11.753910000000001,5,12C5,12.246089999999999,5.191406,12.4375,5.4375,12.4375L11.5625,12.4375L11.5625,18.5625C11.5625,18.8086,11.753910000000001,19,12,19C12.246089999999999,19,12.4375,18.8086,12.4375,18.5625L12.4375,12.4375L18.5625,12.4375C18.8086,12.4375,19,12.246089999999999,19,12C19,11.753910000000001,18.8086,11.5625,18.5625,11.5625Z" fill="#FFFFFF" fill-opacity="0.699999988079071"/></g></g></g></svg>