<svg xmlns="http://www.w3.org/2000/svg" xmlns:xlink="http://www.w3.org/1999/xlink" fill="none" version="1.1" width="24" height="24" viewBox="0 0 24 24"><defs><clipPath id="master_svg0_190_4734"><rect x="5" y="5" width="14" height="14.000000953674316" rx="0"/></clipPath></defs><g style="mix-blend-mode:passthrough"><g style="mix-blend-mode:passthrough"><ellipse cx="12" cy="12" rx="12" ry="12" fill="#FFFFFF" fill-opacity="0.07999999821186066"/></g><g clip-path="url(#master_svg0_190_4734)"><g><path d="M18.5789,5L8.55263,5C8.31579,5,8.13158,5.184211,8.13158,5.421053L8.13158,7.5L5.421053,7.5C5.184211,7.5,5,7.68421,5,7.92105L5,18.5789C5,18.8158,5.184211,19,5.421053,19L16.0789,19C16.3158,19,16.5,18.8158,16.5,18.5789L16.5,15.8684L18.5789,15.8684C18.8158,15.8684,19,15.6842,19,15.4474L19,5.421053C19,5.184211,18.8158,5,18.5789,5ZM15.6579,18.157899999999998L5.842105,18.157899999999998L5.842105,8.34211L15.6579,8.34211L15.6579,18.157899999999998ZM18.157899999999998,15.0263L16.5,15.0263L16.5,7.92105C16.5,7.68421,16.3158,7.5,16.0789,7.5L8.97369,7.5L8.97369,5.842105L18.157899999999998,5.842105L18.157899999999998,15.0263Z" fill="#FFFFFF" fill-opacity="0.699999988079071"/></g></g></g></svg>