<svg xmlns="http://www.w3.org/2000/svg" xmlns:xlink="http://www.w3.org/1999/xlink" fill="none" version="1.1" width="428" height="428" viewBox="0 0 428 428"><g style="mix-blend-mode:passthrough"><g style="opacity:0.10000000149011612;mix-blend-mode:passthrough" transform="matrix(0.7071067690849304,0.7071067690849304,-0.7071067690849304,0.7071067690849304,114.88935378132737,-129.36742851199233)"><path d="M213.60498046875,239.431L213.60498046875,106C213.60498046875,88.3269,227.93188046875,74,245.60498046875,74L379.03598046875004,74C396.70898046875004,74,411.03598046875004,88.3269,411.03598046875004,106L411.03598046875004,239.431C411.03598046875004,257.10400000000004,396.70898046875004,271.43100000000004,379.03598046875004,271.43100000000004L245.60498046875,271.43100000000004C227.93188046875,271.43100000000004,213.60498046875,257.10400000000004,213.60498046875,239.431ZM214.60498046875,239.431Q214.60498046875,245.344,216.78154046875,250.842Q219.14479046875,256.812,223.68468046875,261.352Q228.22458046875,265.89099999999996,234.19408046875,268.255Q239.69208046875,270.43100000000004,245.60498046875,270.43100000000004L379.03598046875004,270.43100000000004Q384.94898046875,270.43100000000004,390.44698046875,268.255Q396.41698046875,265.892,400.95698046875,261.352Q405.49598046874996,256.812,407.85998046875,250.842Q410.03598046875004,245.344,410.03598046875004,239.431L410.03598046875004,106Q410.03598046875004,100.08709999999999,407.85998046875,94.5891Q405.49698046875,88.6196,400.95698046875,84.0797Q396.41698046875,79.53981,390.44698046875,77.17656Q384.94898046875,75,379.03598046875004,75L245.60498046875,75Q239.69198046875,75,234.19408046875,77.17656Q228.22448046875,79.53984,223.68468046875,84.0797Q219.14483046875,88.6195,216.78154046875,94.5891Q214.60498046875,100.087,214.60498046875,106L214.60498046875,239.431Z" fill-rule="evenodd" fill="#FFFFFF" fill-opacity="1"/></g><g style="opacity:0.10000000149011612;mix-blend-mode:passthrough" transform="matrix(0.7071068286895752,0.7071067690849304,-0.7071068286895752,0.7071067690849304,130.2919670719366,-123.59776409492724)"><path d="M214.34169006347656,238.5774398803711L214.34169006347656,120.4774398803711Q214.34169006347656,115.7088398803711,216.09698006347656,111.2750398803711Q218.00286006347656,106.46093988037109,221.66402006347656,102.79976988037109Q225.32519006347655,99.13860988037109,230.13929006347655,97.2327298803711Q234.57309006347657,95.4774398803711,239.34169006347656,95.4774398803711L357.4416900634766,95.4774398803711Q362.2106900634766,95.4774398803711,366.6436900634766,97.2327298803711Q371.45769006347655,99.1385798803711,375.1196900634766,102.79976988037109Q378.7806900634765,106.46103988037109,380.6866900634766,111.2750398803711Q382.4416900634766,115.70893988037109,382.4416900634766,120.4774398803711L382.4416900634766,238.5774398803711Q382.4416900634766,243.3454398803711,380.6866900634766,247.7794398803711Q378.7806900634765,252.5934398803711,375.1196900634766,256.2554398803711Q371.45769006347655,259.91643988037106,366.6436900634766,261.8224398803711Q362.20969006347656,263.5774398803711,357.4416900634766,263.5774398803711L239.34169006347656,263.5774398803711Q234.57319006347657,263.5774398803711,230.13929006347655,261.8224398803711Q225.32529006347656,259.91643988037106,221.66402006347656,256.2554398803711Q218.00283006347655,252.5934398803711,216.09698006347656,247.7794398803711Q214.34169006347656,243.3464398803711,214.34169006347656,238.5774398803711ZM215.34169006347656,238.5774398803711L215.34169006347656,120.4774398803711C215.34169006347656,107.22263988037109,226.08689006347657,96.4774398803711,239.34169006347656,96.4774398803711L357.4416900634766,96.4774398803711C370.6966900634766,96.4774398803711,381.4416900634766,107.22263988037109,381.4416900634766,120.4774398803711L381.4416900634766,238.5774398803711C381.4416900634766,251.83243988037108,370.6966900634766,262.5774398803711,357.4416900634766,262.5774398803711L239.34169006347656,262.5774398803711C226.08689006347657,262.5774398803711,215.34169006347656,251.83243988037108,215.34169006347656,238.5774398803711Z" fill-rule="evenodd" fill="#FFFFFF" fill-opacity="1"/></g><g style="opacity:0.10000000149011612;mix-blend-mode:passthrough" transform="matrix(0.7071068286895752,0.7071067690849304,-0.7071068286895752,0.7071067690849304,146.53199548766315,-116.58792214483901)"><path d="M214.0000762939453,236.52180780029298L214.0000762939453,135.58580780029297Q214.0000762939453,132.34320780029296,215.19367629394532,129.32820780029297Q216.4896662939453,126.05458780029296,218.97925629394533,123.56498780029297Q221.46885629394532,121.07539780029298,224.74247629394532,119.77940780029297Q227.7574762939453,118.58580768108396,231.0000762939453,118.58580780029297L332.9040762939453,118.58580780029297Q336.1460762939453,118.58580780029297,339.1610762939453,119.77940780029297Q342.4350762939453,121.07539780029298,344.9240762939453,123.56498780029297Q347.4140762939453,126.05463780029297,348.71007629394535,129.32820780029297Q349.9040762939453,132.34320780029296,349.9040762939453,135.58580780029297L349.9040762939453,236.52180780029298Q349.9040762939453,239.76480780029297,348.71007629394535,242.77980780029299Q347.4140762939453,246.053807800293,344.9240762939453,248.54280780029296Q342.4350762939453,251.03280780029297,339.1610762939453,252.32880780029296Q336.1460762939453,253.52180780029298,332.9040762939453,253.52180780029298L231.0000762939453,253.52180780029298Q227.7574762939453,253.52180780029298,224.74247629394532,252.32880780029296Q221.4689062939453,251.03280780029297,218.97925629394533,248.54280780029296Q216.4896662939453,246.053807800293,215.19367629394532,242.77980780029299Q214.0000761747363,239.76480780029297,214.0000762939453,236.52180780029298ZM215.0000762939453,236.52180780029298L215.0000762939453,135.58580780029297C215.0000762939453,126.74924780029296,222.16351629394532,119.58580780029297,231.0000762939453,119.58580780029297L332.9040762939453,119.58580780029297C341.7400762939453,119.58580780029297,348.9040762939453,126.74924780029296,348.9040762939453,135.58580780029297L348.9040762939453,236.52180780029298C348.9040762939453,245.35880780029296,341.7400762939453,252.52180780029298,332.9040762939453,252.52180780029298L231.0000762939453,252.52180780029298C222.16351629394532,252.52180780029298,215.0000762939453,245.35880780029296,215.0000762939453,236.52180780029298Z" fill-rule="evenodd" fill="#FFFFFF" fill-opacity="1"/></g><g style="opacity:0.10000000149011612;mix-blend-mode:passthrough" transform="matrix(0.7071068286895752,0.7071067690849304,-0.7071068286895752,0.7071067690849304,101.80483181953059,-135.0452984743929)"><path d="M213.91651916503906,239.47766107177733L213.91651916503906,95.36666107177734C213.91651916503906,73.27526107177735,231.82511916503907,55.366661071777344,253.91651916503906,55.366661071777344L398.02751916503905,55.366661071777344C420.11951916503904,55.366661071777344,438.02751916503905,73.27526107177735,438.02751916503905,95.36666107177734L438.02751916503905,239.47766107177733C438.02751916503905,261.5696610717773,420.11951916503904,279.47766107177733,398.02751916503905,279.47766107177733L253.91651916503906,279.47766107177733C231.82511916503907,279.47766107177733,213.91651916503906,261.5696610717773,213.91651916503906,239.47766107177733ZM214.91651916503906,239.47766107177733Q214.91651916503906,246.91666107177736,217.65477916503906,253.83366107177736Q220.62787916503908,261.3436610717773,226.33931916503906,267.05466107177733Q232.05091916503906,272.7666610717773,239.56081916503905,275.73966107177733Q246.47771916503905,278.47766107177733,253.91651916503906,278.47766107177733L398.02751916503905,278.47766107177733Q405.4665191650391,278.47766107177733,412.38351916503905,275.73966107177733Q419.89351916503904,272.7666610717773,425.60451916503905,267.05466107177733Q431.31651916503904,261.3436610717773,434.28951916503905,253.83366107177736Q437.02751916503905,246.91666107177736,437.02751916503905,239.47766107177733L437.02751916503905,95.36666107177734Q437.02751916503905,87.92786107177734,434.28951916503905,81.01096107177734Q431.31651916503904,73.50096107177734,425.60451916503905,67.78946107177734Q419.89351916503904,62.078031071777346,412.38351916503905,59.10492107177734Q405.4665191650391,56.366661071777344,398.02751916503905,56.366661071777344L253.91651916503906,56.366661071777344Q246.47751916503907,56.366661071777344,239.56081916503905,59.10492107177734Q232.05081916503906,62.07808107177735,226.33931916503906,67.78946107177734Q220.62793916503907,73.50096107177734,217.65477916503906,81.01096107177734Q214.91651916503906,87.92766107177735,214.91651916503906,95.36666107177734L214.91651916503906,239.47766107177733Z" fill-rule="evenodd" fill="#FFFFFF" fill-opacity="1"/></g><g style="opacity:0.10000000149011612;mix-blend-mode:passthrough" transform="matrix(0.7071068286895752,0.7071067690849304,-0.7071068286895752,0.7071067690849304,88.45819042801486,-140.57365820791483)"><path d="M213.91651916503906,239.28266107177734L213.91651916503906,84.49166107177734C213.91651916503906,57.98196107177735,235.40681916503905,36.491661071777344,261.91651916503906,36.491661071777344L416.70751916503906,36.491661071777344C443.21751916503905,36.491661071777344,464.70751916503906,57.98196107177735,464.70751916503906,84.49166107177734L464.70751916503906,239.28266107177734C464.70751916503906,265.79266107177733,443.21751916503905,287.28266107177734,416.70751916503906,287.28266107177734L261.91651916503906,287.28266107177734C235.40681916503905,287.28266107177734,213.91651916503906,265.79266107177733,213.91651916503906,239.28266107177734ZM214.91651916503906,239.28266107177734Q214.91651916503906,248.24766107177734,218.21646916503906,256.5836610717773Q221.79943916503908,265.63366107177734,228.68251916503905,272.5166610717773Q235.56561916503907,279.39966107177736,244.61611916503907,282.98266107177733Q252.95171916503907,286.28266107177734,261.91651916503906,286.28266107177734L416.70751916503906,286.28266107177734Q425.67251916503903,286.28266107177734,434.00851916503905,282.98266107177733Q443.05851916503906,279.39966107177736,449.94151916503904,272.5166610717773Q456.8245191650391,265.63366107177734,460.40751916503905,256.5836610717773Q463.70751916503906,248.24766107177734,463.70751916503906,239.28266107177734L463.70751916503906,84.49166107177734Q463.70751916503906,75.52686107177735,460.40751916503905,67.19126107177735Q456.8245191650391,58.14076107177735,449.94151916503904,51.25766107177734Q443.05851916503906,44.37460107177734,434.00851916503905,40.791611071777346Q425.67251916503903,37.491661071777344,416.70751916503906,37.491661071777344L261.91651916503906,37.491661071777344Q252.95151916503906,37.491661071777344,244.61611916503907,40.791611071777346Q235.56551916503906,44.374661071777346,228.68251916503905,51.25766107177734Q221.79951916503907,58.140661071777345,218.21646916503906,67.19126107177735Q214.91651916503906,75.52676107177734,214.91651916503906,84.49166107177734L214.91651916503906,239.28266107177734Z" fill-rule="evenodd" fill="#FFFFFF" fill-opacity="1"/></g><g style="opacity:0.10000000149011612;mix-blend-mode:passthrough" transform="matrix(0.7071068286895752,0.7071067690849304,-0.7071068286895752,0.7071067690849304,75.11155173389761,-146.10201682413776)"><path d="M213.91651916503906,239.0876648864746L213.91651916503906,73.61666488647461C213.91651916503906,42.68876488647461,238.98861916503907,17.61666488647461,269.91651916503906,17.61666488647461L435.38751916503907,17.61666488647461C466.31551916503906,17.61666488647461,491.38751916503907,42.68876488647461,491.38751916503907,73.61666488647461L491.38751916503907,239.0876648864746C491.38751916503907,270.0156648864746,466.31551916503906,295.0876648864746,435.38751916503907,295.0876648864746L269.91651916503906,295.0876648864746C238.98861916503907,295.0876648864746,213.91651916503906,270.0156648864746,213.91651916503906,239.0876648864746ZM214.91651916503906,239.0876648864746Q214.91651916503906,249.5786648864746,218.77815916503906,259.3326648864746Q222.97114916503907,269.9246648864746,231.02561916503907,277.97866488647463Q239.08031916503907,286.0326648864746,249.67131916503905,290.2256648864746Q259.42541916503905,294.0876648864746,269.91651916503906,294.0876648864746L435.38751916503907,294.0876648864746Q445.87851916503905,294.0876648864746,455.63251916503907,290.2256648864746Q466.2235191650391,286.0336648864746,474.2785191650391,277.97866488647463Q482.33251916503906,269.9236648864746,486.52551916503904,259.3326648864746Q490.38751916503907,249.5786648864746,490.38751916503907,239.0876648864746L490.38751916503907,73.61666488647461Q490.38751916503907,63.125564886474606,486.52551916503904,53.37146488647461Q482.33351916503904,42.780464886474604,474.2785191650391,34.72576488647461Q466.22451916503906,26.67128488647461,455.63251916503907,22.47830488647461Q445.87851916503905,18.61666488647461,435.38751916503907,18.61666488647461L269.91651916503906,18.61666488647461Q259.42561916503905,18.61666488647461,249.67131916503905,22.47830488647461Q239.08021916503907,26.67124488647461,231.02561916503907,34.72576488647461Q222.97109916503905,42.78036488647461,218.77815916503906,53.37146488647461Q214.91651916503906,63.125764886474606,214.91651916503906,73.61666488647461L214.91651916503906,239.0876648864746Z" fill-rule="evenodd" fill="#FFFFFF" fill-opacity="1"/></g><g style="opacity:0.10000000149011612;mix-blend-mode:passthrough" transform="matrix(0.7071068286895752,0.7071067690849304,-0.7071068286895752,0.7071067690849304,62.6791610064065,-151.32090253214028)"><path d="M214.0000762939453,238.642L214.0000762939453,64C214.0000762939453,28.6538,242.6538762939453,0,278.0000762939453,0L452.6420762939453,0C487.9880762939453,0,516.6420762939454,28.6538,516.6420762939454,64L516.6420762939454,238.642C516.6420762939454,273.988,487.9880762939453,302.642,452.6420762939453,302.642L278.0000762939453,302.642C242.6538762939453,302.642,214.0000762939453,273.988,214.0000762939453,238.642ZM215.0000762939453,238.642Q215.0000762939453,250.659,219.4234162939453,261.832Q224.22637629394532,273.964,233.45237629394532,283.189Q242.6786762939453,292.416,254.81007629394531,297.218Q265.9828762939453,301.642,278.0000762939453,301.642L452.6420762939453,301.642Q464.6590762939453,301.642,475.8320762939453,297.218Q487.96307629394533,292.415,497.18907629394533,283.189Q506.41507629394533,273.964,511.21807629394533,261.832Q515.6420762939454,250.659,515.6420762939454,238.642L515.6420762939454,64Q515.6420762939454,51.9828,511.21807629394533,40.81Q506.4160762939453,28.6786,497.18907629394533,19.4523Q487.9640762939453,10.2264,475.8320762939453,5.42334Q464.6590762939453,1,452.6420762939453,1L278.0000762939453,1Q265.9831762939453,1,254.81007629394531,5.42334Q242.67847629394532,10.2262,233.45237629394532,19.4523Q224.22627629394532,28.6784,219.4234162939453,40.81Q215.0000762939453,51.9832,215.0000762939453,64L215.0000762939453,238.642Z" fill-rule="evenodd" fill="#FFFFFF" fill-opacity="1"/></g></g></svg>