<svg xmlns="http://www.w3.org/2000/svg" xmlns:xlink="http://www.w3.org/1999/xlink" fill="none" version="1.1" width="24" height="24" viewBox="0 0 24 24"><defs><clipPath id="master_svg0_190_4742"><rect x="5" y="6" width="14" height="12.947368621826172" rx="0"/></clipPath></defs><g style="mix-blend-mode:passthrough"><g style="mix-blend-mode:passthrough"><ellipse cx="12" cy="12" rx="12" ry="12" fill="#FFFFFF" fill-opacity="0.07999999821186066"/></g><g clip-path="url(#master_svg0_190_4742)"><g><path d="M18.8684,11.26316C18.7105,11.105260000000001,18.447400000000002,11.105260000000001,18.263199999999998,11.26316L17.763199999999998,11.78947C17.4211,8.55263,14.71053,6,11.394739999999999,6C7.86842,6,5,8.89474,5,12.47368C5,16.052599999999998,7.86842,18.947400000000002,11.394739999999999,18.947400000000002C13.6579,18.947400000000002,15.7895,17.7105,16.9211,15.73684C17.0263,15.52632,16.9737,15.28947,16.763199999999998,15.1579C16.552599999999998,15.05263,16.3158,15.10526,16.1842,15.31579C15.2105,17.0263,13.36842,18.1053,11.394739999999999,18.1053C8.34211,18.1053,5.842105,15.57895,5.842105,12.47368C5.842105,9.36842,8.34211,6.842105,11.394739999999999,6.842105C14.18421,6.842105,16.5263,8.94737,16.8947,11.68421L16.4737,11.26316C16.3158,11.105260000000001,16.052599999999998,11.105260000000001,15.8684,11.26316C15.6842,11.421050000000001,15.7105,11.68421,15.8684,11.86842L17.052599999999998,13.078949999999999C17.1316,13.15789,17.236800000000002,13.21053,17.342100000000002,13.21053C17.447400000000002,13.21053,17.552599999999998,13.15789,17.6316,13.078949999999999L18.8158,11.86842C19.052599999999998,11.68421,19.052599999999998,11.421050000000001,18.8684,11.26316Z" fill="#FFFFFF" fill-opacity="0.699999988079071"/></g></g></g></svg>