<svg xmlns="http://www.w3.org/2000/svg" xmlns:xlink="http://www.w3.org/1999/xlink" fill="none" version="1.1" width="30" height="30" viewBox="0 0 30 30"><defs><clipPath id="master_svg0_190_5003"><rect x="0" y="0" width="30" height="30" rx="0"/></clipPath></defs><g clip-path="url(#master_svg0_190_5003)"><g style="mix-blend-mode:passthrough"><rect x="0" y="0" width="30" height="30" rx="15" fill="#F82C30" fill-opacity="1"/></g><g><g><path d="M14.61421,7L14.61421,8.03553C11.08122,8.23858,8.23858,11.08122,8.03553,14.61421L7,14.61421L7,15.36548L8.03553,15.36548C8.21827,18.9391,11.06091,21.802,14.61421,21.9848L14.61421,23L15.36548,23L15.36548,21.9848C18.918799999999997,21.802,21.7817,18.9391,21.9645,15.38579L23,15.38579L23,14.63452L21.9645,14.63452C21.761400000000002,11.08122,18.918799999999997,8.23858,15.36548,8.05584L15.36548,7L14.61421,7ZM15,11.73097C16.05584,11.73097,16.92894,12.60406,16.92894,13.6599C16.92894,14.22843,16.68528,14.756350000000001,16.27919,15.10152C17.3553,15.58883,18.1269,16.644669999999998,18.1675,17.9036L18.1878,18.2893L11.81218,18.2893L11.83249,17.9036C11.8731,16.644669999999998,12.64467,15.56853,13.72081,15.10152C13.314720000000001,14.756350000000001,13.071069999999999,14.22843,13.071069999999999,13.6599C13.071069999999999,12.58376,13.94416,11.73097,15,11.73097Z" fill="#0F0F0F" fill-opacity="1"/></g></g></g></svg>